<svg xmlns="http://www.w3.org/2000/svg" width="1111" height="148" viewBox="0 0 1111 148">
  <metadata><?xpacket begin="﻿" id="W5M0MpCehiHzreSzNTczkc9d"?>
<x:xmpmeta xmlns:x="adobe:ns:meta/" x:xmptk="Adobe XMP Core 5.6-c140 79.160451, 2017/05/06-01:08:21        ">
   <rdf:RDF xmlns:rdf="http://www.w3.org/1999/02/22-rdf-syntax-ns#">
      <rdf:Description rdf:about=""/>
   </rdf:RDF>
</x:xmpmeta>
                                                                                                    
                                                                                                    
                                                                                                    
                                                                                                    
                                                                                                    
                                                                                                    
                                                                                                    
                                                                                                    
                                                                                                    
                                                                                                    
                                                                                                    
                                                                                                    
                                                                                                    
                                                                                                    
                                                                                                    
                                                                                                    
                                                                                                    
                                                                                                    
                                                                                                    
                                                                                                    
                           
<?xpacket end="w"?></metadata>
<defs>
    <style>
      .cls-1 {
        fill: #bcd652;
        fill-rule: evenodd;
      }
    </style>
  </defs>
  <path id="autogestor-verde" class="cls-1" d="M811.82,1588.91l0.1,0.21c-0.031-.25-0.061-0.31-0.1-0.21m0.127-.09c-0.056.1-.1,0.2-0.155,0.31,0.052,0.11.1,0,.155-0.31M506.1,1583.84a42.641,42.641,0,0,0-6.562-10.94c-8.153-9.69-20.186-14.82-34.8-14.82-0.059,0-.118.01-0.171,0.01l0.171-.14H377.161l3.844-26.46-39.855.12-3.782,26.34H324.342l-5.629,29.84h13.609l-5.9,35.25c-4.569,25.79,6.969,39.68,28.854,39.68,19.9,0,33.227-7.94,33.227-7.94l-4.975-27.77a27.5,27.5,0,0,1-10.344,1.98c-3.977,0-7.366-3.96-6.172-9.91l4.774-31.29h37.762a67.127,67.127,0,0,0-8.109,20.57c-2.988,14.47.71,28.11,9.194,38.18,8.419,9.99,20.915,15.49,35.2,15.49,22.666,0,48.884-11.81,59.511-37.36a61.407,61.407,0,0,0,3.788-12.91,49.877,49.877,0,0,0-3.029-27.92m-33.624,28.46,0,0.01c-1.287,7.32-7.34,21.16-21.07,21.16-4.386,0-7.83-1.45-10.235-4.3-4.911-5.83-4.036-15.89-3.072-21.37,1-4.99,5.459-21.15,21.069-21.15,4.34,0,7.756,1.43,10.162,4.26,4.643,5.47,4.271,14.65,3.149,21.39M137.66,1658.72l-3.029-20.4H91.053l-11.172,20.4H31l82.41-133.73h46.225l23.494,133.73H137.66Zm-10.608-88.21-19.135,34.38h23.112Zm167.736,78.01q-0.86,5.67-1.233,10.2H252.636q0.188-2.835.565-6.52c0.257-2.45.508-4.55,0.762-6.32H253.2a38.47,38.47,0,0,1-12.214,10.58,34.121,34.121,0,0,1-17.334,4.53,36,36,0,0,1-14.114-2.46,26.714,26.714,0,0,1-9.476-6.51,24.237,24.237,0,0,1-5.3-9.35,37.393,37.393,0,0,1-1.609-10.96q0-3.015.282-6.33t0.856-6.32l10.422-59.69h42.623l-9.281,52.7a20.28,20.28,0,0,0-.475,3.49c-0.071,1.2-.1,2.17-0.1,2.93a8.9,8.9,0,0,0,2.09,6.14c1.385,1.58,3.595,2.36,6.627,2.36a9.877,9.877,0,0,0,7.669-3.87q3.319-3.87,4.644-11.24l9.473-52.51h42.437l-14.021,79.9c-0.5,2.39-1.041,5.48-1.609,9.25m746.752-75.35c-8.16-9.69-20.19-14.81-34.8-14.81h-0.18l0.18-.14H921.874l3.84-26.45-39.855.12-3.778,26.33H868.15l-9.244,29.84h18.125l-5.893,35.25c-4.575,25.79,4.253,39.68,26.138,39.68,19.9,0,33.227-7.94,33.227-7.94l-4.975-27.77a27.38,27.38,0,0,1-10.344,1.99c-3.977,0-4.653-3.97-3.456-9.92l4.774-31.29h35.046a67.152,67.152,0,0,0-8.109,20.57c-2.988,14.47.71,28.11,9.194,38.18,8.42,9.99,20.915,15.49,35.2,15.49,22.671,0,48.881-11.81,59.511-37.36a61.316,61.316,0,0,0,3.79-12.9,49.874,49.874,0,0,0-3.03-27.92,42.467,42.467,0,0,0-6.56-10.95m-27.06,39.4-0.01.02c-1.28,7.31-7.34,21.15-21.064,21.15-4.39,0-7.834-1.45-10.239-4.3-4.91-5.83-4.033-15.89-3.072-21.37,1-4.99,5.459-21.15,21.065-21.15,4.34,0,7.76,1.43,10.17,4.27,4.64,5.46,4.27,14.64,3.15,21.38m-258.312-44.34a38.46,38.46,0,0,0-13.714-8.23,53.811,53.811,0,0,0-18.289-2.9,62.212,62.212,0,0,0-23.472,4.3,55.11,55.11,0,0,0-18.286,11.83,53.072,53.072,0,0,0-11.87,17.79,57.334,57.334,0,0,0-4.222,22,40.8,40.8,0,0,0,3.872,18.33c2.576,5.2,22.527,41.52,85.85,19.31l8.463-27.84c-27.7,9.28-53.255,6.68-60.552-1.64a7.058,7.058,0,0,1-1.585-4.82,3.855,3.855,0,0,1,.177-1.23h62.946a49.851,49.851,0,0,0,1.847-8.42,63.118,63.118,0,0,0,.617-8.41,45.341,45.341,0,0,0-3.078-17.09,36.476,36.476,0,0,0-8.7-12.98m-22.332,24.88a3.884,3.884,0,0,1-.173,1.16H707.525c-0.332-1.74.737-5.01,2.529-7.06a14.141,14.141,0,0,1,4.883-3.62,16.56,16.56,0,0,1,6.593-1.24q5.8,0,9.055,2.67a8.737,8.737,0,0,1,3.251,7.12v0.97Zm112.86-6.42,8.779-28.68c-2.474-1.2-24.347-2.77-32.006-2.77a63.526,63.526,0,0,0-16.588,2.22,48.832,48.832,0,0,0-14.833,6.65,34.261,34.261,0,0,0-10.564,11.27,30.976,30.976,0,0,0-3.983,15.9,25.689,25.689,0,0,0,1.94,10.35,23.149,23.149,0,0,0,5.561,7.76,34.333,34.333,0,0,0,8.714,5.73,76.061,76.061,0,0,0,11.587,4.25,41.946,41.946,0,0,1,7.322,2.77q2.874,1.485,2.874,3.7a3.368,3.368,0,0,1-2.13,3.23,15.534,15.534,0,0,1-5.84,1.02c-14.045.57-31.674-6.5-31.674-6.5l-8.131,27.76c3.707,1.97,12.185,3.53,16.448,4.61a90.733,90.733,0,0,0,22.244,2.96,74.21,74.21,0,0,0,16.219-1.85,47.326,47.326,0,0,0,15.012-6.1,35.383,35.383,0,0,0,11.126-11.08q4.351-6.84,4.355-16.64a26.6,26.6,0,0,0-2.223-11.27,24.516,24.516,0,0,0-6.3-8.32,36.6,36.6,0,0,0-9.737-6.01,74,74,0,0,0-12.511-4.15,37.482,37.482,0,0,1-6.767-2.31,3.309,3.309,0,0,1-1.944-2.87c-0.369-4.84,6.265-14.03,33.051-1.63M663.252,1570.5H601.02l-6.122,34.72h22.2l-2.105,11.83a22.505,22.505,0,0,1-5.456,1.53,39.281,39.281,0,0,1-6.6.57q-14.169,0-20.67-7.35-6.505-7.335-6.5-18.59a44.145,44.145,0,0,1,2.874-16.41c1.909-4.84,4.231-9.13,7.554-12.31,18.829-18.01,48.838-14.1,55.63-7.63l14.188-32.63c-33.993-16.94-80.736-9.74-103.879,14.79a81.388,81.388,0,0,0-16.55,26.33,87.762,87.762,0,0,0-5.933,32.43,63.077,63.077,0,0,0,4.879,25.47,51.6,51.6,0,0,0,13.779,18.79,59.91,59.91,0,0,0,21.336,11.55,92.447,92.447,0,0,0,27.747,3.91,99.85,99.85,0,0,0,28.224-3.91,130.415,130.415,0,0,0,23.742-9.41Zm405.518-.29c0.56-3.73.96-7.08,1.21-10.07h40.22a21.217,21.217,0,0,1-.19,2.42c-0.13,1-.28,2.09-0.47,3.27s-0.37,2.33-.56,3.45-0.34,2.05-.47,2.79h0.56a39.011,39.011,0,0,1,10.48-9.97,30.071,30.071,0,0,1,22.44-3.08l-7.85,35.43a20.64,20.64,0,0,0-4.3-.74c-1.62-.13-3.12-0.19-4.49-0.19q-9.735,0-15.15,5.13a21.851,21.851,0,0,0-6.74,12.03l-8.41,47.55h-41.9l14.03-78.88q0.75-3.54,1.59-9.14" transform="translate(-31 -1515)"/>
</svg>
